<svg width="155" height="148" viewBox="0 0 155 148" fill="none" xmlns="http://www.w3.org/2000/svg">
<g id="sting-logo">
<g id="gradient sting ray">
<g id="blue eye sting ray">
<g id="Ellipse 12" filter="url(#filter0_d_1214_655)">
<path d="M122.875 43.416C108.688 69.8994 121.679 62.3577 120.618 90.4594C108.476 55.4828 62.997 93.5952 39.3921 113.377C62.997 93.5952 100.686 62.0107 63.9082 32.0201C102.195 48.1279 104.376 39.763 122.875 43.416Z" fill="black"/>
<path d="M83.9955 80.6935C76.189 84.4537 68.0448 89.8608 60.382 95.5598C66.1068 89.7342 71.3223 83.4582 74.9343 76.9002C78.8757 69.7442 80.9481 62.1839 79.6394 54.4661C78.5045 47.7736 74.8441 41.0622 67.841 34.4601C84.349 41.0886 93.6052 42.7946 100.771 43.1498C103.415 43.2808 105.786 43.2271 108.099 43.1747C109.151 43.1508 110.191 43.1273 111.24 43.1215C114.363 43.1042 117.643 43.2404 121.737 43.9769C118.498 50.1184 116.747 54.4249 115.969 57.8164C115.142 61.4167 115.414 63.9674 116.114 66.5415C116.382 67.5285 116.716 68.5276 117.065 69.575C117.162 69.8654 117.261 70.1596 117.359 70.4582C117.816 71.8447 118.29 73.3638 118.706 75.1598C119.384 78.0888 119.914 81.7804 119.942 86.8298C116.75 80.1147 111.997 76.6905 106.244 75.75C99.6833 74.6775 91.9566 76.8589 83.9955 80.6935Z" stroke="#F152FF" stroke-width="1.5"/>
</g>
<g id="Ellipse 13" style="mix-blend-mode:overlay">
<path d="M93.7635 85.5591C88.0602 88.359 82.1183 92.2447 76.4451 96.3947C80.5067 92.1394 84.1762 87.6133 86.8234 82.9229C90.0455 77.2137 91.7969 71.1878 90.8408 65.0652C90.0395 59.9341 87.3521 54.8318 82.2112 49.8586C94.8216 54.6621 102.009 55.856 107.614 56.043C109.716 56.1132 111.608 56.0406 113.448 55.97C114.282 55.9379 115.105 55.9063 115.933 55.8886C118.345 55.837 120.87 55.8983 123.989 56.3901C121.415 61.166 120 64.5378 119.347 67.2021C118.641 70.081 118.829 72.1185 119.36 74.1657C119.563 74.9466 119.818 75.7372 120.084 76.5598C120.157 76.7869 120.231 77.0164 120.305 77.2488C120.651 78.3343 121.007 79.5204 121.315 80.9238C121.789 83.0893 122.151 85.7963 122.157 89.4473C121.17 87.4886 119.991 85.9049 118.638 84.6669C116.6 82.802 114.204 81.7545 111.566 81.3671C106.326 80.5975 100.135 82.4315 93.7635 85.5591Z" stroke="#9F03FF" stroke-opacity="0.7" stroke-width="1.5"/>
</g>
<path id="Ellipse 17" d="M109.663 46.6191C110.183 46.004 108.842 43.9837 109.767 44.7823C110.692 45.5809 111.02 46.727 110.5 47.3421C109.98 47.9572 108.809 47.8084 107.884 47.0098C106.959 46.2111 109.143 47.2342 109.663 46.6191Z" fill="white"/>
<path id="Ellipse 18" d="M113.375 52.0398C112.687 52.4547 113.329 54.791 112.699 53.7413C112.069 52.6916 112.116 51.5044 112.804 51.0895C113.493 50.6746 114.562 51.1893 115.192 52.2389C115.822 53.2886 114.063 51.6249 113.375 52.0398Z" fill="white"/>
</g>
</g>
</g>
<defs>
<filter id="filter0_d_1214_655" x="35.3921" y="32.0201" width="91.4824" height="101.357" filterUnits="userSpaceOnUse" color-interpolation-filters="sRGB">
<feFlood flood-opacity="0" result="BackgroundImageFix"/>
<feColorMatrix in="SourceAlpha" type="matrix" values="0 0 0 0 0 0 0 0 0 0 0 0 0 0 0 0 0 0 127 0" result="hardAlpha"/>
<feOffset dy="16"/>
<feGaussianBlur stdDeviation="2"/>
<feComposite in2="hardAlpha" operator="out"/>
<feColorMatrix type="matrix" values="0 0 0 0 0 0 0 0 0 0 0 0 0 0 0 0 0 0 0.8 0"/>
<feBlend mode="normal" in2="BackgroundImageFix" result="effect1_dropShadow_1214_655"/>
<feBlend mode="normal" in="SourceGraphic" in2="effect1_dropShadow_1214_655" result="shape"/>
</filter>
</defs>
</svg>
